<?xml version="1.0" encoding="UTF-8" standalone="no"?>
<!DOCTYPE svg PUBLIC "-//W3C//DTD SVG 1.1//EN"
 "http://www.w3.org/Graphics/SVG/1.1/DTD/svg11.dtd">
<!-- Generated by graphviz version 2.38.0 (20140413.2041)
 -->
<!-- Title: G Pages: 1 -->
<svg width="833pt" height="768pt"
 viewBox="0.00 0.00 833.46 768.00" xmlns="http://www.w3.org/2000/svg" xmlns:xlink="http://www.w3.org/1999/xlink">
<g id="graph0" class="graph" transform="scale(1 1) rotate(0) translate(4 764)">
<title>G</title>
<polygon fill="white" stroke="none" points="-4,4 -4,-764 829.459,-764 829.459,4 -4,4"/>
<g id="clust1" class="cluster"><title>cluster_Global</title>
<path fill="none" stroke="gray" d="M361.666,-44C361.666,-44 805.459,-44 805.459,-44 811.459,-44 817.459,-50 817.459,-56 817.459,-56 817.459,-740 817.459,-740 817.459,-746 811.459,-752 805.459,-752 805.459,-752 361.666,-752 361.666,-752 355.666,-752 349.666,-746 349.666,-740 349.666,-740 349.666,-56 349.666,-56 349.666,-50 355.666,-44 361.666,-44"/>
<text text-anchor="middle" x="583.563" y="-739.2" font-family="Times,serif" font-size="11.00" fill="gray">Global</text>
</g>
<g id="clust2" class="cluster"><title>cluster_\Teknoo</title>
<path fill="none" stroke="gray" d="M369.666,-52C369.666,-52 797.459,-52 797.459,-52 803.459,-52 809.459,-58 809.459,-64 809.459,-64 809.459,-712 809.459,-712 809.459,-718 803.459,-724 797.459,-724 797.459,-724 369.666,-724 369.666,-724 363.666,-724 357.666,-718 357.666,-712 357.666,-712 357.666,-64 357.666,-64 357.666,-58 363.666,-52 369.666,-52"/>
<text text-anchor="middle" x="583.563" y="-711.2" font-family="Times,serif" font-size="11.00" fill="gray">Teknoo</text>
</g>
<g id="clust3" class="cluster"><title>cluster_\Teknoo\Sellsy</title>
<path fill="none" stroke="gray" d="M377.666,-60C377.666,-60 789.459,-60 789.459,-60 795.459,-60 801.459,-66 801.459,-72 801.459,-72 801.459,-684 801.459,-684 801.459,-690 795.459,-696 789.459,-696 789.459,-696 377.666,-696 377.666,-696 371.666,-696 365.666,-690 365.666,-684 365.666,-684 365.666,-72 365.666,-72 365.666,-66 371.666,-60 377.666,-60"/>
<text text-anchor="middle" x="583.563" y="-683.2" font-family="Times,serif" font-size="11.00" fill="gray">Sellsy</text>
</g>
<g id="clust4" class="cluster"><title>cluster_\Teknoo\Sellsy\Client</title>
<path fill="none" stroke="gray" d="M399.166,-408C399.166,-408 781.459,-408 781.459,-408 787.459,-408 793.459,-414 793.459,-420 793.459,-420 793.459,-656 793.459,-656 793.459,-662 787.459,-668 781.459,-668 781.459,-668 399.166,-668 399.166,-668 393.166,-668 387.166,-662 387.166,-656 387.166,-656 387.166,-420 387.166,-420 387.166,-414 393.166,-408 399.166,-408"/>
<text text-anchor="middle" x="590.313" y="-655.2" font-family="Times,serif" font-size="11.00" fill="gray">Client</text>
</g>
<g id="clust5" class="cluster"><title>cluster_\Teknoo\Sellsy\Client\Exception</title>
<path fill="none" stroke="gray" d="M609.459,-416C609.459,-416 773.459,-416 773.459,-416 779.459,-416 785.459,-422 785.459,-428 785.459,-428 785.459,-530 785.459,-530 785.459,-536 779.459,-542 773.459,-542 773.459,-542 609.459,-542 609.459,-542 603.459,-542 597.459,-536 597.459,-530 597.459,-530 597.459,-428 597.459,-428 597.459,-422 603.459,-416 609.459,-416"/>
<text text-anchor="middle" x="691.459" y="-529.2" font-family="Times,serif" font-size="11.00" fill="gray">Exception</text>
</g>
<g id="clust6" class="cluster"><title>cluster_\Teknoo\Sellsy\Collection</title>
<path fill="none" stroke="gray" d="M385.666,-274C385.666,-274 759.959,-274 759.959,-274 765.959,-274 771.959,-280 771.959,-286 771.959,-286 771.959,-388 771.959,-388 771.959,-394 765.959,-400 759.959,-400 759.959,-400 385.666,-400 385.666,-400 379.666,-400 373.666,-394 373.666,-388 373.666,-388 373.666,-286 373.666,-286 373.666,-280 379.666,-274 385.666,-274"/>
<text text-anchor="middle" x="572.813" y="-387.2" font-family="Times,serif" font-size="11.00" fill="gray">Collection</text>
</g>
<g id="clust7" class="cluster"><title>cluster_\Teknoo\Sellsy\Method</title>
<path fill="none" stroke="gray" d="M399.166,-194C399.166,-194 715.959,-194 715.959,-194 721.959,-194 727.959,-200 727.959,-206 727.959,-206 727.959,-254 727.959,-254 727.959,-260 721.959,-266 715.959,-266 715.959,-266 399.166,-266 399.166,-266 393.166,-266 387.166,-260 387.166,-254 387.166,-254 387.166,-206 387.166,-206 387.166,-200 393.166,-194 399.166,-194"/>
<text text-anchor="middle" x="557.563" y="-253.2" font-family="Times,serif" font-size="11.00" fill="gray">Method</text>
</g>
<g id="clust8" class="cluster"><title>cluster_\Teknoo\Sellsy\Transport</title>
<path fill="none" stroke="gray" d="M389.166,-114C389.166,-114 715.959,-114 715.959,-114 721.959,-114 727.959,-120 727.959,-126 727.959,-126 727.959,-174 727.959,-174 727.959,-180 721.959,-186 715.959,-186 715.959,-186 389.166,-186 389.166,-186 383.166,-186 377.166,-180 377.166,-174 377.166,-174 377.166,-126 377.166,-126 377.166,-120 383.166,-114 389.166,-114"/>
<text text-anchor="middle" x="552.563" y="-173.2" font-family="Times,serif" font-size="11.00" fill="gray">Transport</text>
</g>
<!-- \\Teknoo\\Sellsy\\Client\\Exception\\RequestFailureException -->
<g id="node1" class="node"><title>\\Teknoo\\Sellsy\\Client\\Exception\\RequestFailureException</title>
<polygon fill="none" stroke="black" points="777.459,-514 605.459,-514 605.459,-478 777.459,-478 777.459,-514"/>
<text text-anchor="middle" x="691.459" y="-493.2" font-family="Courier,monospace" font-size="11.00">RequestFailureException</text>
</g>
<!-- \\RuntimeException -->
<g id="node15" class="node"><title>\\RuntimeException</title>
<ellipse fill="none" stroke="black" cx="454.166" cy="-18" rx="79.0865" ry="18"/>
<text text-anchor="middle" x="454.166" y="-14.3" font-family="Times,serif" font-size="14.00" fill="gray">\RuntimeException</text>
</g>
<!-- \\Teknoo\\Sellsy\\Client\\Exception\\RequestFailureException&#45;&gt;\\RuntimeException -->
<g id="edge3" class="edge"><title>\\Teknoo\\Sellsy\\Client\\Exception\\RequestFailureException&#45;&gt;\\RuntimeException</title>
<path fill="none" stroke="black" d="M607.63,-477.941C603.923,-475.339 600.494,-472.376 597.459,-469 489.098,-348.481 602.602,-256.582 533.459,-110 521.355,-84.3389 500.18,-60.1075 482.901,-42.9607"/>
<polygon fill="none" stroke="black" points="484.907,-40.0319 475.283,-35.6012 480.043,-45.0664 484.907,-40.0319"/>
</g>
<!-- \\Teknoo\\Sellsy\\Client\\Exception\\ErrorException -->
<g id="node2" class="node"><title>\\Teknoo\\Sellsy\\Client\\Exception\\ErrorException</title>
<polygon fill="none" stroke="black" points="746.959,-460 635.959,-460 635.959,-424 746.959,-424 746.959,-460"/>
<text text-anchor="middle" x="691.459" y="-439.2" font-family="Courier,monospace" font-size="11.00">ErrorException</text>
</g>
<!-- \\Teknoo\\Sellsy\\Client\\Exception\\ErrorException&#45;&gt;\\RuntimeException -->
<g id="edge6" class="edge"><title>\\Teknoo\\Sellsy\\Client\\Exception\\ErrorException&#45;&gt;\\RuntimeException</title>
<path fill="none" stroke="black" d="M635.626,-429.568C621.405,-423.916 607.331,-415.753 597.459,-404 511.451,-301.601 592.792,-229.843 533.459,-110 520.79,-84.41 499.452,-60.0175 482.249,-42.7867"/>
<polygon fill="none" stroke="black" points="484.281,-39.8792 474.682,-35.3953 479.39,-44.8867 484.281,-39.8792"/>
</g>
<!-- \\Teknoo\\Sellsy\\Client\\Client -->
<g id="node3" class="node"><title>\\Teknoo\\Sellsy\\Client\\Client</title>
<polygon fill="none" stroke="black" points="719.959,-640 662.959,-640 662.959,-604 719.959,-604 719.959,-640"/>
<text text-anchor="middle" x="691.459" y="-619.2" font-family="Courier,monospace" font-size="11.00">Client</text>
</g>
<!-- \\Teknoo\\Sellsy\\Client\\ClientInterface -->
<g id="node6" class="node"><title>\\Teknoo\\Sellsy\\Client\\ClientInterface</title>
<polygon fill="none" stroke="black" points="513.166,-640 395.166,-640 395.166,-604 513.166,-604 513.166,-640"/>
<text text-anchor="middle" x="454.166" y="-619.2" font-family="Courier,monospace" font-size="11.00">ClientInterface</text>
</g>
<!-- \\Teknoo\\Sellsy\\Client\\Client&#45;&gt;\\Teknoo\\Sellsy\\Client\\ClientInterface -->
<g id="edge5" class="edge"><title>\\Teknoo\\Sellsy\\Client\\Client&#45;&gt;\\Teknoo\\Sellsy\\Client\\ClientInterface</title>
<path fill="none" stroke="black" stroke-dasharray="1,5" d="M662.544,-622C628.592,-622 570.093,-622 523.865,-622"/>
<polygon fill="none" stroke="black" points="523.602,-618.5 513.602,-622 523.602,-625.5 523.602,-618.5"/>
</g>
<!-- \\Teknoo\\Sellsy\\Client\\Result -->
<g id="node4" class="node"><title>\\Teknoo\\Sellsy\\Client\\Result</title>
<polygon fill="none" stroke="black" points="719.959,-586 662.959,-586 662.959,-550 719.959,-550 719.959,-586"/>
<text text-anchor="middle" x="691.459" y="-565.2" font-family="Courier,monospace" font-size="11.00">Result</text>
</g>
<!-- \\Teknoo\\Sellsy\\Client\\ResultInterface -->
<g id="node5" class="node"><title>\\Teknoo\\Sellsy\\Client\\ResultInterface</title>
<polygon fill="none" stroke="black" points="513.166,-519 395.166,-519 395.166,-483 513.166,-483 513.166,-519"/>
<text text-anchor="middle" x="454.166" y="-498.2" font-family="Courier,monospace" font-size="11.00">ResultInterface</text>
</g>
<!-- \\Teknoo\\Sellsy\\Client\\Result&#45;&gt;\\Teknoo\\Sellsy\\Client\\ResultInterface -->
<g id="edge7" class="edge"><title>\\Teknoo\\Sellsy\\Client\\Result&#45;&gt;\\Teknoo\\Sellsy\\Client\\ResultInterface</title>
<path fill="none" stroke="black" stroke-dasharray="1,5" d="M662.651,-561.987C644.098,-557.837 619.21,-552.003 597.459,-546 571.441,-538.819 543.036,-530.031 518.495,-522.133"/>
<polygon fill="none" stroke="black" points="519.533,-518.79 508.941,-519.04 517.377,-525.45 519.533,-518.79"/>
</g>
<!-- \\Teknoo\\Immutable\\ImmutableInterface -->
<g id="node16" class="node"><title>\\Teknoo\\Immutable\\ImmutableInterface</title>
<ellipse fill="none" stroke="black" cx="151.437" cy="-360" rx="151.373" ry="18"/>
<text text-anchor="middle" x="151.437" y="-356.3" font-family="Times,serif" font-size="14.00" fill="gray">Teknoo\Immutable\ImmutableInterface</text>
</g>
<!-- \\Teknoo\\Sellsy\\Client\\ResultInterface&#45;&gt;\\Teknoo\\Immutable\\ImmutableInterface -->
<g id="edge8" class="edge"><title>\\Teknoo\\Sellsy\\Client\\ResultInterface&#45;&gt;\\Teknoo\\Immutable\\ImmutableInterface</title>
<path fill="none" stroke="black" d="M414.773,-482.999C359.611,-457.136 258.067,-409.526 198.794,-381.735"/>
<polygon fill="none" stroke="black" points="200.198,-378.528 189.658,-377.452 197.226,-384.866 200.198,-378.528"/>
</g>
<!-- \\Teknoo\\Sellsy\\Collection\\Collection -->
<g id="node7" class="node"><title>\\Teknoo\\Sellsy\\Collection\\Collection</title>
<polygon fill="none" stroke="black" points="733.459,-372 649.459,-372 649.459,-336 733.459,-336 733.459,-372"/>
<text text-anchor="middle" x="691.459" y="-351.2" font-family="Courier,monospace" font-size="11.00">Collection</text>
</g>
<!-- \\Teknoo\\Sellsy\\Collection\\CollectionInterface -->
<g id="node9" class="node"><title>\\Teknoo\\Sellsy\\Collection\\CollectionInterface</title>
<polygon fill="none" stroke="black" points="526.666,-372 381.666,-372 381.666,-336 526.666,-336 526.666,-372"/>
<text text-anchor="middle" x="454.166" y="-351.2" font-family="Courier,monospace" font-size="11.00">CollectionInterface</text>
</g>
<!-- \\Teknoo\\Sellsy\\Collection\\Collection&#45;&gt;\\Teknoo\\Sellsy\\Collection\\CollectionInterface -->
<g id="edge4" class="edge"><title>\\Teknoo\\Sellsy\\Collection\\Collection&#45;&gt;\\Teknoo\\Sellsy\\Collection\\CollectionInterface</title>
<path fill="none" stroke="black" stroke-dasharray="1,5" d="M649.205,-354C618.232,-354 574.814,-354 536.9,-354"/>
<polygon fill="none" stroke="black" points="536.88,-350.5 526.88,-354 536.88,-357.5 536.88,-350.5"/>
</g>
<!-- \\Teknoo\\Sellsy\\Collection\\DefinitionInterface -->
<g id="node8" class="node"><title>\\Teknoo\\Sellsy\\Collection\\DefinitionInterface</title>
<polygon fill="none" stroke="black" points="763.959,-318 618.959,-318 618.959,-282 763.959,-282 763.959,-318"/>
<text text-anchor="middle" x="691.459" y="-297.2" font-family="Courier,monospace" font-size="11.00">DefinitionInterface</text>
</g>
<!-- \\Teknoo\\Sellsy\\Method\\Method -->
<g id="node10" class="node"><title>\\Teknoo\\Sellsy\\Method\\Method</title>
<polygon fill="none" stroke="black" points="719.959,-238 662.959,-238 662.959,-202 719.959,-202 719.959,-238"/>
<text text-anchor="middle" x="691.459" y="-217.2" font-family="Courier,monospace" font-size="11.00">Method</text>
</g>
<!-- \\Teknoo\\Sellsy\\Method\\MethodInterface -->
<g id="node11" class="node"><title>\\Teknoo\\Sellsy\\Method\\MethodInterface</title>
<polygon fill="none" stroke="black" points="513.166,-238 395.166,-238 395.166,-202 513.166,-202 513.166,-238"/>
<text text-anchor="middle" x="454.166" y="-217.2" font-family="Courier,monospace" font-size="11.00">MethodInterface</text>
</g>
<!-- \\Teknoo\\Sellsy\\Method\\Method&#45;&gt;\\Teknoo\\Sellsy\\Method\\MethodInterface -->
<g id="edge1" class="edge"><title>\\Teknoo\\Sellsy\\Method\\Method&#45;&gt;\\Teknoo\\Sellsy\\Method\\MethodInterface</title>
<path fill="none" stroke="black" stroke-dasharray="1,5" d="M662.544,-220C628.592,-220 570.093,-220 523.865,-220"/>
<polygon fill="none" stroke="black" points="523.602,-216.5 513.602,-220 523.602,-223.5 523.602,-216.5"/>
</g>
<!-- \\Teknoo\\Sellsy\\Method\\MethodInterface&#45;&gt;\\Teknoo\\Immutable\\ImmutableInterface -->
<g id="edge9" class="edge"><title>\\Teknoo\\Sellsy\\Method\\MethodInterface&#45;&gt;\\Teknoo\\Immutable\\ImmutableInterface</title>
<path fill="none" stroke="black" d="M414.467,-238.016C359.354,-263.673 258.39,-310.675 199.174,-338.242"/>
<polygon fill="none" stroke="black" points="197.63,-335.1 190.042,-342.494 200.585,-341.446 197.63,-335.1"/>
</g>
<!-- \\Teknoo\\Sellsy\\Transport\\Guzzle -->
<g id="node12" class="node"><title>\\Teknoo\\Sellsy\\Transport\\Guzzle</title>
<polygon fill="none" stroke="black" points="719.959,-158 662.959,-158 662.959,-122 719.959,-122 719.959,-158"/>
<text text-anchor="middle" x="691.459" y="-137.2" font-family="Courier,monospace" font-size="11.00">Guzzle</text>
</g>
<!-- \\Teknoo\\Sellsy\\Transport\\TransportInterface -->
<g id="node13" class="node"><title>\\Teknoo\\Sellsy\\Transport\\TransportInterface</title>
<polygon fill="none" stroke="black" points="523.166,-158 385.166,-158 385.166,-122 523.166,-122 523.166,-158"/>
<text text-anchor="middle" x="454.166" y="-137.2" font-family="Courier,monospace" font-size="11.00">TransportInterface</text>
</g>
<!-- \\Teknoo\\Sellsy\\Transport\\Guzzle&#45;&gt;\\Teknoo\\Sellsy\\Transport\\TransportInterface -->
<g id="edge2" class="edge"><title>\\Teknoo\\Sellsy\\Transport\\Guzzle&#45;&gt;\\Teknoo\\Sellsy\\Transport\\TransportInterface</title>
<path fill="none" stroke="black" stroke-dasharray="1,5" d="M662.544,-140C630.922,-140 578.006,-140 533.544,-140"/>
<polygon fill="none" stroke="black" points="533.321,-136.5 523.321,-140 533.321,-143.5 533.321,-136.5"/>
</g>
<!-- \\Teknoo\\Sellsy\\Sellsy -->
<g id="node14" class="node"><title>\\Teknoo\\Sellsy\\Sellsy</title>
<polygon fill="none" stroke="black" points="719.959,-104 662.959,-104 662.959,-68 719.959,-68 719.959,-104"/>
<text text-anchor="middle" x="691.459" y="-83.2" font-family="Courier,monospace" font-size="11.00">Sellsy</text>
</g>
</g>
</svg>
