<?xml version="1.0" encoding="UTF-8" standalone="no"?>
<!DOCTYPE svg PUBLIC "-//W3C//DTD SVG 1.1//EN"
 "http://www.w3.org/Graphics/SVG/1.1/DTD/svg11.dtd">
<!-- Generated by graphviz version 2.38.0 (20140413.2041)
 -->
<!-- Title: G Pages: 1 -->
<svg width="554pt" height="564pt"
 viewBox="0.00 0.00 554.00 564.00" xmlns="http://www.w3.org/2000/svg" xmlns:xlink="http://www.w3.org/1999/xlink">
<g id="graph0" class="graph" transform="scale(1 1) rotate(0) translate(4 560)">
<title>G</title>
<polygon fill="white" stroke="none" points="-4,4 -4,-560 550,-560 550,4 -4,4"/>
<g id="clust1" class="cluster"><title>cluster_Global</title>
<path fill="none" stroke="gray" d="M20,-44C20,-44 526,-44 526,-44 532,-44 538,-50 538,-56 538,-56 538,-536 538,-536 538,-542 532,-548 526,-548 526,-548 20,-548 20,-548 14,-548 8,-542 8,-536 8,-536 8,-56 8,-56 8,-50 14,-44 20,-44"/>
<text text-anchor="middle" x="273" y="-535.2" font-family="Times,serif" font-size="11.00" fill="gray">Global</text>
</g>
<g id="clust2" class="cluster"><title>cluster_\UniAlteri</title>
<path fill="none" stroke="gray" d="M28,-52C28,-52 518,-52 518,-52 524,-52 530,-58 530,-64 530,-64 530,-508 530,-508 530,-514 524,-520 518,-520 518,-520 28,-520 28,-520 22,-520 16,-514 16,-508 16,-508 16,-64 16,-64 16,-58 22,-52 28,-52"/>
<text text-anchor="middle" x="273" y="-507.2" font-family="Times,serif" font-size="11.00" fill="gray">UniAlteri</text>
</g>
<g id="clust3" class="cluster"><title>cluster_\UniAlteri\Sellsy</title>
<path fill="none" stroke="gray" d="M36,-60C36,-60 510,-60 510,-60 516,-60 522,-66 522,-72 522,-72 522,-480 522,-480 522,-486 516,-492 510,-492 510,-492 36,-492 36,-492 30,-492 24,-486 24,-480 24,-480 24,-72 24,-72 24,-66 30,-60 36,-60"/>
<text text-anchor="middle" x="273" y="-479.2" font-family="Times,serif" font-size="11.00" fill="gray">Sellsy</text>
</g>
<g id="clust4" class="cluster"><title>cluster_\UniAlteri\Sellsy\Client</title>
<path fill="none" stroke="gray" d="M44,-68C44,-68 502,-68 502,-68 508,-68 514,-74 514,-80 514,-80 514,-452 514,-452 514,-458 508,-464 502,-464 502,-464 44,-464 44,-464 38,-464 32,-458 32,-452 32,-452 32,-80 32,-80 32,-74 38,-68 44,-68"/>
<text text-anchor="middle" x="273" y="-451.2" font-family="Times,serif" font-size="11.00" fill="gray">Client</text>
</g>
<g id="clust5" class="cluster"><title>cluster_\UniAlteri\Sellsy\Client\Exception</title>
<path fill="none" stroke="gray" d="M330,-76C330,-76 494,-76 494,-76 500,-76 506,-82 506,-88 506,-88 506,-190 506,-190 506,-196 500,-202 494,-202 494,-202 330,-202 330,-202 324,-202 318,-196 318,-190 318,-190 318,-88 318,-88 318,-82 324,-76 330,-76"/>
<text text-anchor="middle" x="412" y="-189.2" font-family="Times,serif" font-size="11.00" fill="gray">Exception</text>
</g>
<g id="clust6" class="cluster"><title>cluster_\UniAlteri\Sellsy\Client\Collection</title>
<path fill="none" stroke="gray" d="M52,-310C52,-310 480.5,-310 480.5,-310 486.5,-310 492.5,-316 492.5,-322 492.5,-322 492.5,-424 492.5,-424 492.5,-430 486.5,-436 480.5,-436 480.5,-436 52,-436 52,-436 46,-436 40,-430 40,-424 40,-424 40,-322 40,-322 40,-316 46,-310 52,-310"/>
<text text-anchor="middle" x="266.25" y="-423.2" font-family="Times,serif" font-size="11.00" fill="gray">Collection</text>
</g>
<!-- \\UniAlteri\\Sellsy\\Client\\Exception\\RequestFailureException -->
<g id="node1" class="node"><title>\\UniAlteri\\Sellsy\\Client\\Exception\\RequestFailureException</title>
<polygon fill="none" stroke="black" points="498,-174 326,-174 326,-138 498,-138 498,-174"/>
<text text-anchor="middle" x="412" y="-153.2" font-family="Courier,monospace" font-size="11.00">RequestFailureException</text>
</g>
<!-- \\RuntimeException -->
<g id="node10" class="node"><title>\\RuntimeException</title>
<ellipse fill="none" stroke="black" cx="151" cy="-18" rx="79.0865" ry="18"/>
<text text-anchor="middle" x="151" y="-14.3" font-family="Times,serif" font-size="14.00" fill="gray">\RuntimeException</text>
</g>
<!-- \\UniAlteri\\Sellsy\\Client\\Exception\\RequestFailureException&#45;&gt;\\RuntimeException -->
<g id="edge1" class="edge"><title>\\UniAlteri\\Sellsy\\Client\\Exception\\RequestFailureException&#45;&gt;\\RuntimeException</title>
<path fill="none" stroke="black" d="M335.956,-137.93C329.705,-135.321 323.631,-132.359 318,-129 283.182,-108.231 287.267,-87.1723 254,-64 238.81,-53.4191 220.794,-44.3414 204.162,-37.114"/>
<polygon fill="none" stroke="black" points="205.136,-33.7265 194.561,-33.0751 202.421,-40.1789 205.136,-33.7265"/>
</g>
<!-- \\UniAlteri\\Sellsy\\Client\\Exception\\ErrorException -->
<g id="node2" class="node"><title>\\UniAlteri\\Sellsy\\Client\\Exception\\ErrorException</title>
<polygon fill="none" stroke="black" points="467.5,-120 356.5,-120 356.5,-84 467.5,-84 467.5,-120"/>
<text text-anchor="middle" x="412" y="-99.2" font-family="Courier,monospace" font-size="11.00">ErrorException</text>
</g>
<!-- \\UniAlteri\\Sellsy\\Client\\Exception\\ErrorException&#45;&gt;\\RuntimeException -->
<g id="edge2" class="edge"><title>\\UniAlteri\\Sellsy\\Client\\Exception\\ErrorException&#45;&gt;\\RuntimeException</title>
<path fill="none" stroke="black" d="M356.389,-84.2884C312.512,-70.058 251.159,-50.1598 207.142,-35.8839"/>
<polygon fill="none" stroke="black" points="208.06,-32.5021 197.468,-32.7462 205.9,-39.1606 208.06,-32.5021"/>
</g>
<!-- \\UniAlteri\\Sellsy\\Client\\Collection\\CollectionGenerator -->
<g id="node3" class="node"><title>\\UniAlteri\\Sellsy\\Client\\Collection\\CollectionGenerator</title>
<polygon fill="none" stroke="black" points="484.5,-408 339.5,-408 339.5,-372 484.5,-372 484.5,-408"/>
<text text-anchor="middle" x="412" y="-387.2" font-family="Courier,monospace" font-size="11.00">CollectionGenerator</text>
</g>
<!-- \\UniAlteri\\Sellsy\\Client\\Collection\\CollectionGeneratorInterface -->
<g id="node5" class="node"><title>\\UniAlteri\\Sellsy\\Client\\Collection\\CollectionGeneratorInterface</title>
<polygon fill="none" stroke="black" points="254,-408 48,-408 48,-372 254,-372 254,-408"/>
<text text-anchor="middle" x="151" y="-387.2" font-family="Courier,monospace" font-size="11.00">CollectionGeneratorInterface</text>
</g>
<!-- \\UniAlteri\\Sellsy\\Client\\Collection\\CollectionGenerator&#45;&gt;\\UniAlteri\\Sellsy\\Client\\Collection\\CollectionGeneratorInterface -->
<g id="edge3" class="edge"><title>\\UniAlteri\\Sellsy\\Client\\Collection\\CollectionGenerator&#45;&gt;\\UniAlteri\\Sellsy\\Client\\Collection\\CollectionGeneratorInterface</title>
<path fill="none" stroke="black" stroke-dasharray="1,5" d="M339.198,-390C315.937,-390 289.555,-390 264.088,-390"/>
<polygon fill="none" stroke="black" points="264.004,-386.5 254.003,-390 264.003,-393.5 264.004,-386.5"/>
</g>
<!-- \\UniAlteri\\Sellsy\\Client\\Collection\\Collection -->
<g id="node4" class="node"><title>\\UniAlteri\\Sellsy\\Client\\Collection\\Collection</title>
<polygon fill="none" stroke="black" points="454,-354 370,-354 370,-318 454,-318 454,-354"/>
<text text-anchor="middle" x="412" y="-333.2" font-family="Courier,monospace" font-size="11.00">Collection</text>
</g>
<!-- \\UniAlteri\\Sellsy\\Client\\Collection\\CollectionInterface -->
<g id="node6" class="node"><title>\\UniAlteri\\Sellsy\\Client\\Collection\\CollectionInterface</title>
<polygon fill="none" stroke="black" points="223.5,-354 78.5,-354 78.5,-318 223.5,-318 223.5,-354"/>
<text text-anchor="middle" x="151" y="-333.2" font-family="Courier,monospace" font-size="11.00">CollectionInterface</text>
</g>
<!-- \\UniAlteri\\Sellsy\\Client\\Collection\\Collection&#45;&gt;\\UniAlteri\\Sellsy\\Client\\Collection\\CollectionInterface -->
<g id="edge4" class="edge"><title>\\UniAlteri\\Sellsy\\Client\\Collection\\Collection&#45;&gt;\\UniAlteri\\Sellsy\\Client\\Collection\\CollectionInterface</title>
<path fill="none" stroke="black" stroke-dasharray="1,5" d="M369.961,-336C333.493,-336 279.098,-336 233.772,-336"/>
<polygon fill="none" stroke="black" points="233.656,-332.5 223.656,-336 233.656,-339.5 233.656,-332.5"/>
</g>
<!-- \\UniAlteri\\Sellsy\\Client\\ClientGenerator -->
<g id="node7" class="node"><title>\\UniAlteri\\Sellsy\\Client\\ClientGenerator</title>
<polygon fill="none" stroke="black" points="471,-246 353,-246 353,-210 471,-210 471,-246"/>
<text text-anchor="middle" x="412" y="-225.2" font-family="Courier,monospace" font-size="11.00">ClientGenerator</text>
</g>
<!-- \\UniAlteri\\Sellsy\\Client\\Client -->
<g id="node8" class="node"><title>\\UniAlteri\\Sellsy\\Client\\Client</title>
<polygon fill="none" stroke="black" points="440.5,-300 383.5,-300 383.5,-264 440.5,-264 440.5,-300"/>
<text text-anchor="middle" x="412" y="-279.2" font-family="Courier,monospace" font-size="11.00">Client</text>
</g>
<!-- \\UniAlteri\\Sellsy\\Client\\ClientInterface -->
<g id="node9" class="node"><title>\\UniAlteri\\Sellsy\\Client\\ClientInterface</title>
<polygon fill="none" stroke="black" points="210,-300 92,-300 92,-264 210,-264 210,-300"/>
<text text-anchor="middle" x="151" y="-279.2" font-family="Courier,monospace" font-size="11.00">ClientInterface</text>
</g>
<!-- \\UniAlteri\\Sellsy\\Client\\Client&#45;&gt;\\UniAlteri\\Sellsy\\Client\\ClientInterface -->
<g id="edge5" class="edge"><title>\\UniAlteri\\Sellsy\\Client\\Client&#45;&gt;\\UniAlteri\\Sellsy\\Client\\ClientInterface</title>
<path fill="none" stroke="black" stroke-dasharray="1,5" d="M383.282,-282C344.665,-282 273.424,-282 220.173,-282"/>
<polygon fill="none" stroke="black" points="220.115,-278.5 210.115,-282 220.115,-285.5 220.115,-278.5"/>
</g>
</g>
</svg>
